<?xml version="1.0" encoding="UTF-8"?>
<svg width="23px" height="57px" viewBox="0 0 23 57" version="1.1" xmlns="http://www.w3.org/2000/svg" xmlns:xlink="http://www.w3.org/1999/xlink">
    <!-- Generator: Sketch 46.2 (44496) - http://www.bohemiancoding.com/sketch -->
    <title>Combined Shape</title>
    <desc>Created with Sketch.</desc>
    <defs></defs>
    <g id="Page-1" stroke="none" stroke-width="1" fill="none" fill-rule="evenodd">
        <g id="iPhone-7-Plus" transform="translate(-198.000000, -461.000000)" fill-rule="nonzero" fill="#111111">
            <path d="M208.010075,514.538752 L208.010075,515.482476 C208.010075,515.791552 208.150294,516.067878 208.370588,516.251311 L208.339532,516.282368 C207.949008,516.672892 207.949008,517.306057 208.339532,517.696581 C208.730056,518.087105 209.363221,518.087105 209.753746,517.696581 L219.800357,507.64997 C220.190881,507.259446 220.190881,506.626281 219.800357,506.235756 C219.409832,505.845232 218.776668,505.845232 218.386143,506.235756 L210.010075,514.611825 L210.010075,462 C210.010075,461.447715 209.56236,461 209.010075,461 C208.45779,461 208.010075,461.447715 208.010075,462 L208.010075,514.538752 L199.707107,506.235784 C199.316582,505.845259 198.683418,505.845259 198.292893,506.235784 C197.902369,506.626308 197.902369,507.259473 198.292893,507.649997 L208.339504,517.696609 C208.730029,518.087133 209.363194,518.087133 209.753718,517.696609 C210.144242,517.306084 210.144242,516.672919 209.753718,516.282395 L208.010075,514.538752 Z" id="Combined-Shape"></path>
        </g>
    </g>
</svg>