<svg id="Layer_1" data-name="Layer 1" xmlns="http://www.w3.org/2000/svg" viewBox="0 0 584 80"><defs><style>.cls-1{fill:#fff;}</style></defs><title>Artboard 1</title><path class="cls-1" d="M2,34.58C2,12.55,16.39,5,32.89,5,40.21,5,47,6.13,50.69,7.6l.65,16.58H41.51l-2.76-7.72a16.14,16.14,0,0,0-6.91-1.22c-8.7,0-12.52,6.18-12.52,17.72,0,15.36,3.33,20.4,12.44,20.4a15.28,15.28,0,0,0,5-.81v-9l-5-1.3V34.34H56.55v7.89l-4.39,1.3V60.19a64,64,0,0,1-20,3.09C13.54,63.28,2,55.15,2,34.58Z"/><path class="cls-1" d="M59.71,40.52c0-14.23,8.78-22.52,22-22.52,13.41,0,19.75,6.67,19.75,24.88H75.15C76,50.52,80,53.2,86.94,53.2a37.76,37.76,0,0,0,12.44-2v7.89c-3.09,2.11-8.21,4.31-16.5,4.31C67.67,63.36,59.71,55.15,59.71,40.52Zm27.23-5c0-6.75-2.28-8.78-5.45-8.78-3.33,0-5.77,2-6.34,9.27Z"/><path class="cls-1" d="M104.65,40.93c0-15,9.92-22.92,22.44-22.92,14.47,0,22.52,8.13,22.52,22.36,0,14.88-10,23-22.44,23C112.62,63.36,104.65,54.66,104.65,40.93Zm29.18,0c0-11.22-2.76-14.06-6.83-14.06s-6.67,2.52-6.67,13.49c0,11.22,2.76,14.06,6.91,14.06C131.24,54.42,133.84,51.57,133.84,40.93Z"/><path class="cls-1" d="M151.65,54.91l4.63-1.14v-25l-4.88-1.3V20l17.88-1.87,1.3.57v4.47h.49A20.51,20.51,0,0,1,184.89,18c4.55,0,8.21,1.71,9.92,5.53h.41A21.71,21.71,0,0,1,209.61,18c6.34,0,11.22,3.25,11.22,10.89V53.77l4.31,1.14v7.4H202.7v-7.4l3.25-.89V34.18c0-3.74-1.46-5-5-5a13.83,13.83,0,0,0-5.12,1.14,10.94,10.94,0,0,1,.16,2V54l3.33.89v7.4H177.82v-7.4l3.33-.89V34.18c0-3.74-1.46-5-4.71-5a12.61,12.61,0,0,0-5.2,1.14V54l3.33.89v7.4H151.65Z"/><path class="cls-1" d="M226.21,40.52c0-14.23,8.78-22.52,22-22.52,13.41,0,19.75,6.67,19.75,24.88H241.66c.81,7.64,4.88,10.32,11.79,10.32a37.76,37.76,0,0,0,12.44-2v7.89c-3.09,2.11-8.21,4.31-16.5,4.31C234.18,63.36,226.21,55.15,226.21,40.52Zm27.23-5c0-6.75-2.28-8.78-5.45-8.78-3.33,0-5.77,2-6.34,9.27Z"/><path class="cls-1" d="M274.58,51.17V27.76H270V21l5.93-2.19,1.87-10.08h11.71V18.89h8.78v8.86h-8.78v21c0,3.82,1.71,5,5.28,5a15.13,15.13,0,0,0,4-.57v7.72c-2,1.22-5.77,2.36-10.49,2.36C279.46,63.2,274.58,60.35,274.58,51.17Z"/><path class="cls-1" d="M303.28,54.91l4.63-1.14v-25L303,27.51V20l17.89-1.87,1.3.57v6.5h.49c2.28-3.9,6-7,11-7a9,9,0,0,1,2.19.24V31.58a17.18,17.18,0,0,0-3.82-.41c-4,0-6.75.49-9.19,1.63v21l6,1.14v7.4H303.28Z"/><path class="cls-1" d="M344.78,77.51V68.16a18.53,18.53,0,0,0,4.39.57c3.41,0,5.85-.89,7.07-3.9l1.22-3.17L343,27.43l-3.74-1.14v-7.4h23.33v7.4l-4,1,7.24,19.51h.32l6.34-19.51-4-1v-7.4h18.7v7.4l-3.5,1.14-15,39.43c-3.09,8-7.07,11.95-15.77,11.95A25,25,0,0,1,344.78,77.51Z"/><path class="cls-1" d="M406.5,34.58c0-22,14.71-29.59,29.67-29.59,7.32,0,14.23,1.14,17.72,2.52l.49,16.75h-9.84L442,16.54a14.37,14.37,0,0,0-6.26-1.3c-8.7,0-11.79,6.5-11.79,17.72C424,48.57,427.47,53,436.25,53a12.82,12.82,0,0,0,6.42-1.54l2.6-8H455l-.73,16.67c-4.06,1.79-10.49,3.17-19.59,3.17C418.53,63.28,406.5,55.15,406.5,34.58Z"/><path class="cls-1" d="M458.85,54.91l4.8-1.14V12.15l-5.2-1.38V3.29l18.78-1.87,1.3.65v51.7l4.63,1.14v7.4H458.85Z"/><path class="cls-1" d="M488.52,51.25V28.65L484,27.27V19.79l18.13-1.71,1.3.65V46.94c0,3.58,1.14,5.12,4.88,5.12A14.23,14.23,0,0,0,514,50.84V28.65l-4.31-1.38V19.79l17.8-1.71,1.38.65V52.47l4.63,1.3v7.4l-17.64,2-1.3-.57V57.83h-.49A17.83,17.83,0,0,1,501,63.28C492.09,63.28,488.52,58.81,488.52,51.25Z"/><path class="cls-1" d="M539,59.46V12.39l-4.63-1.3V3.21l18.13-1.87,1.38.65v20.4h.49a17.52,17.52,0,0,1,12-4.47c7.8,0,15.69,4.71,15.69,21,0,17.8-9.67,24.47-23.66,24.47C549.89,63.36,542.9,61.57,539,59.46Zm27.31-18.7c0-9.19-2.28-12.19-6.91-12.19a12.12,12.12,0,0,0-5.53,1.22V53a7.34,7.34,0,0,0,4.88,1.46C563.55,54.5,566.31,51.9,566.31,40.76Z"/></svg>