<svg xmlns="http://www.w3.org/2000/svg" viewBox="0 0 158.74 158.74"><defs><style>.cls-1{fill:#444;}</style></defs><title>first-edition</title><path class="cls-1" d="M31.57,144,23,136.77a.94.94,0,0,1-.11-1.33L24,134.12a1,1,0,0,1,1.33-.12l5,4.25a.94.94,0,0,0,1.33-.11L34,135.46a.94.94,0,0,0-.11-1.33L30.18,131a.94.94,0,0,1-.11-1.33l1-1.22a.94.94,0,0,1,1.33-.11l3.67,3.11a1,1,0,0,0,1.33-.12l3.88-4.59a.94.94,0,0,1,1.33-.11l2.09,1.76a.94.94,0,0,1,.11,1.33L32.9,143.88A1,1,0,0,1,31.57,144Z"/><path class="cls-1" d="M10.31,120,9,117.6a1,1,0,0,1,.36-1.29l16.14-9a.93.93,0,0,1,1.28.36l1.35,2.41a.93.93,0,0,1-.36,1.28l-16.14,9A1,1,0,0,1,10.31,120Z"/><path class="cls-1" d="M2,97A1,1,0,0,1,.9,96.15L.12,89.84c-.59-4.78,1-8,5.17-8.57H5.4a5.13,5.13,0,0,1,5.39,2.52.94.94,0,0,0,1.4.25l5.72-4.63a1,1,0,0,1,1.53.62l.33,2.66a.94.94,0,0,1-.34.85L13,88.68a.93.93,0,0,0-.35.85l.07.52a.93.93,0,0,0,1.05.82l5.93-.73A1,1,0,0,1,20.8,91l.33,2.68a.94.94,0,0,1-.82,1ZM9.44,88.8c-.28-2.29-1.39-3.33-3.34-3.09H6c-2.07.26-2.62,1.59-2.35,3.8l.21,1.64A1,1,0,0,0,4.9,92l3.92-.49a1,1,0,0,0,.83-1Z"/><path class="cls-1" d="M14.75,65.2l.83-2.41a1,1,0,0,1,1-.63c1.5.16,2.87-.35,3.72-2.81.66-1.92,0-3.55-1.47-4.07s-2.35.1-3.76,2.78c-2.35,4.71-4.52,6.22-8.24,4.93C3.54,61.86,2,58.27,3.5,54c1.35-3.9,3.76-5.8,7.1-5.44a.94.94,0,0,1,.8,1.25l-.77,2.24a.94.94,0,0,1-.91.65c-1.47-.05-2.43.73-3,2.4C6.05,57,6.6,58.3,7.9,58.75s2.23.08,3.69-2.74c2.2-4.46,4.29-6.42,8.28-5,3.42,1.18,5.18,4.92,3.61,9.47-1.65,4.78-4.52,6.52-8,6A1,1,0,0,1,14.75,65.2Z"/><path class="cls-1" d="M22.09,29.46l-2.5,2.6a1,1,0,0,1-1.34,0L17,30.91a1,1,0,0,1,0-1.34l9.54-9.91a.94.94,0,0,1,1.33,0l1.23,1.18a1,1,0,0,1,0,1.34l-2.51,2.6a1,1,0,0,0,0,1.34L37.39,36.42a.94.94,0,0,1,0,1.33l-1.91,2a.94.94,0,0,1-1.33,0L23.43,29.43A1,1,0,0,0,22.09,29.46Z"/><path class="cls-1" d="M64.37,1.36,75.68,0a.93.93,0,0,1,1,.82l.2,1.69a.93.93,0,0,1-.82,1l-6.76.81a.94.94,0,0,0-.82,1l.34,2.86a1,1,0,0,0,1,.82l5-.6a.93.93,0,0,1,1,.82l.17,1.47a.94.94,0,0,1-.82,1l-5,.6a1,1,0,0,0-.83,1.05l.38,3.16a1,1,0,0,0,1,.83l7.21-.87a1,1,0,0,1,1.05.83l.21,1.69a1,1,0,0,1-.83,1.05L66.79,21.6a1,1,0,0,1-1.05-.82L63.54,2.41A1,1,0,0,1,64.37,1.36Z"/><path class="cls-1" d="M98,2.93a1,1,0,0,1,1.21-.57l5.39,1.92c6.74,2.41,8.77,7.25,6.71,13l-.07.21c-2,5.75-6.78,8.39-13.52,6L92.4,21.56a1,1,0,0,1-.58-1.21ZM98.84,20c3.86,1.38,6.46-.14,7.88-4.12l.08-.21c1.41-4,.47-6.67-3.58-8.12l-.83-.3a1,1,0,0,0-1.21.58l-3.8,10.65a.94.94,0,0,0,.57,1.2Z"/><path class="cls-1" d="M132.07,20.16l2,1.87a.94.94,0,0,1,.06,1.33L121.66,37a.94.94,0,0,1-1.33,0l-2-1.86a.94.94,0,0,1-.06-1.33l12.5-13.64A1,1,0,0,1,132.07,20.16Z"/><path class="cls-1" d="M145.93,43l-1.61-3.24a.93.93,0,0,1,.42-1.26l1.53-.77a.94.94,0,0,1,1.26.43l6.15,12.31a1,1,0,0,1-.43,1.27l-1.52.76a1,1,0,0,1-1.27-.42l-1.61-3.24a1,1,0,0,0-1.27-.42l-13.34,6.65a.93.93,0,0,1-1.26-.42l-1.23-2.47a.94.94,0,0,1,.42-1.27l13.34-6.65A.94.94,0,0,0,145.93,43Z"/><path class="cls-1" d="M158.48,71l.26,2.74a1,1,0,0,1-.86,1l-18.41,1.73a.94.94,0,0,1-1-.85l-.26-2.75a1,1,0,0,1,.85-1l18.42-1.73A.94.94,0,0,1,158.48,71Z"/><path class="cls-1" d="M148.36,92.13l.22.07a10.08,10.08,0,0,1,6.48,13.26c-2,5.8-7.27,8.62-13.08,6.66l-.21-.07c-5.76-1.94-8.61-7.3-6.58-13.33S142.72,90.22,148.36,92.13Zm-5.11,15.33.22.07c3.76,1.27,7,.14,8.13-3.24s-.64-6.21-4.53-7.52l-.22-.07c-3.94-1.33-7.14.12-8.2,3.28S139.36,106.15,143.25,107.46Z"/><path class="cls-1" d="M139.17,133l-2.83,2.64a.93.93,0,0,1-.92.21l-10.94-3.35a.94.94,0,0,0-1,1.55l6.11,6.56a1,1,0,0,1,0,1.33L128,143.45a.94.94,0,0,1-1.34,0L114,129.87a.94.94,0,0,1,0-1.33l2.3-2.14a.92.92,0,0,1,.91-.21l12.26,3.67a.94.94,0,0,0,1-1.55l-6.88-7.38a1,1,0,0,1,0-1.33l1.62-1.51a.94.94,0,0,1,1.33,0l12.61,13.54A.93.93,0,0,1,139.17,133Z"/></svg>