<svg id="Layer_1" data-name="Layer 1" xmlns="http://www.w3.org/2000/svg" viewBox="0 0 140.19 140.19"><defs><style>.cls-1{fill:#e2c754;}.cls-2{fill:#0d0c22;}.cls-3{fill:#fff;}.cls-4{fill:#191919;}</style></defs><circle class="cls-1" cx="70.09" cy="70.09" r="70.09"/><path class="cls-2" d="M92.17,48.49l-.06,0-.13,0a.4.4,0,0,0,.19.07Z"/><path class="cls-2" d="M93,54.26l-.06,0Z"/><path class="cls-2" d="M92.19,48.48h0v0Z"/><path class="cls-2" d="M92.17,48.49Z"/><path class="cls-2" d="M92.92,54.25l.1,0,0,0,0,0a.76.76,0,0,0-.16.11Z"/><path class="cls-2" d="M92.33,48.61l-.09-.08-.07,0a.28.28,0,0,0,.16.12Z"/><path class="cls-3" d="M72,67c-2.9,1.24-6.19,2.65-10.46,2.65a19.74,19.74,0,0,1-5.29-.73l3,30.32a5,5,0,0,0,5,4.64s4.18.22,5.58.22,6-.22,6-.22a5.05,5.05,0,0,0,3.43-1.33,5.11,5.11,0,0,0,1.62-3.31l3.16-33.5A13.51,13.51,0,0,0,79.65,65C76.87,65,74.63,65.91,72,67Z"/><path class="cls-4" d="M97.76,51.29l-.45-2.24c-.4-2-1.3-3.92-3.37-4.65A5.07,5.07,0,0,1,92,43.59a3.33,3.33,0,0,1-.78-1.92c-.21-1.28-.42-2.55-.64-3.82a11.84,11.84,0,0,0-.85-3.32,5.82,5.82,0,0,0-3.35-2.66,21.47,21.47,0,0,0-2.11-.65,51.56,51.56,0,0,0-10.35-1.4A86.38,86.38,0,0,0,61.48,30a37.32,37.32,0,0,0-9.26,1.68,7.86,7.86,0,0,0-3,1.69,3.24,3.24,0,0,0-.59,3.86,4.92,4.92,0,0,0,2.32,2,18.24,18.24,0,0,0,3.79,1.23,61.43,61.43,0,0,0,11.06,1.25,84.07,84.07,0,0,0,12.29-.4c1-.11,2-.24,3-.4a2.29,2.29,0,0,0,1.59-2.81,2.34,2.34,0,0,0-2.8-1.59l-.56.08-.14,0-1.29.15q-1.33.15-2.67.24c-2,.14-4,.2-6,.21s-3.94-.06-5.9-.19c-.9-.06-1.79-.13-2.68-.22l-1.22-.14-.38,0H59l-.39-.06c-.82-.12-1.64-.26-2.44-.43a.42.42,0,0,1-.21-.13.4.4,0,0,1-.08-.23.38.38,0,0,1,.08-.23.36.36,0,0,1,.21-.13h0c.7-.15,1.41-.27,2.11-.39l.71-.1h0c.44,0,.89-.11,1.33-.17a85.36,85.36,0,0,1,11.53-.4c1.87,0,3.74.16,5.6.35l1.19.14.46.05.31,0c.9.13,1.79.3,2.69.49,1.31.28,3,.38,3.6,1.82a9.07,9.07,0,0,1,.37,1.45l.13.62a0,0,0,0,1,0,0l.93,4.35a.7.7,0,0,1,0,.32,1,1,0,0,1-.13.3.88.88,0,0,1-.24.23,1.08,1.08,0,0,1-.3.11h0l-.19,0-.19,0c-.6.07-1.19.15-1.79.21-1.18.14-2.36.25-3.54.35-2.34.2-4.69.32-7,.39-1.2,0-2.4,0-3.6,0a123.92,123.92,0,0,1-14.28-.83l-1.54-.19-.43-.06-1-.14c-1.1-.17-2.19-.37-3.28-.55a5.64,5.64,0,0,0-3.78.55,5.48,5.48,0,0,0-2.27,2.35,13.65,13.65,0,0,0-.9,3.37,12,12,0,0,0-.46,3.56,5.68,5.68,0,0,0,4.62,5.05c2.4.44,4.81.79,7.23,1.09a133.68,133.68,0,0,0,28.63.42L85,60a1.56,1.56,0,0,1,.71.08,1.61,1.61,0,0,1,.61.38,1.59,1.59,0,0,1,.39.61,1.77,1.77,0,0,1,.09.72l-.24,2.34q-.73,7.11-1.46,14.22L83.59,93.33c-.15,1.4-.29,2.8-.44,4.2s-.16,2.8-.42,4.17a4.83,4.83,0,0,1-4,3.94,28,28,0,0,1-5.91.69c-2.21,0-4.41-.09-6.62-.08s-5.24-.2-7.06-2c-1.59-1.54-1.81-4-2-6-.29-2.76-.58-5.51-.86-8.27l-1.6-15.34-1-9.92c0-.17,0-.33-.05-.5A2.33,2.33,0,0,0,51.3,62,2.3,2.3,0,0,0,49,64.23l.76,7.36,1.59,15.22,1.35,13c.09.83.17,1.66.26,2.49.5,4.53,4,7,8.23,7.65a52.29,52.29,0,0,0,7.6.53,49.47,49.47,0,0,0,9.74-.41c4.74-.87,8.3-4,8.81-9,.14-1.42.29-2.83.43-4.25q.72-7,1.45-14.07l1.57-15.33.72-7A1.64,1.64,0,0,1,92.84,59a6.47,6.47,0,0,0,3.62-1.75A6.18,6.18,0,0,0,97.76,51.29Zm-51,1.51s0,.17,0,.25C46.72,52.93,46.73,52.82,46.76,52.8Zm.13,1s0,0,.08.09-.09-.08-.08-.09ZM47,54c0,.08.07.13,0,0Zm.26.21h0v0l0,0Zm45.5-.31a3.55,3.55,0,0,1-2,.78,136.86,136.86,0,0,1-24.6,1.55A163.47,163.47,0,0,1,48.7,54.54a2.56,2.56,0,0,1-1.58-.6c-.74-.8-.38-2.39-.19-3.35s.52-2.05,1.56-2.18c1.63-.19,3.53.5,5.14.74q2.91.45,5.85.72a113.21,113.21,0,0,0,25.16-.47c1.51-.21,3-.44,4.53-.71,1.34-.24,2.82-.7,3.63.69a5.79,5.79,0,0,1,.55,3.28,1.84,1.84,0,0,1-.57,1.23Z"/></svg>