<svg id="Layer_1" data-name="Layer 1" xmlns="http://www.w3.org/2000/svg" viewBox="0 0 400 400"><defs><style>.cls-1{fill:#fff;}</style></defs><path class="cls-1" d="M393.37,193.61H357.3a1,1,0,0,1-1-1V55.23A11.31,11.31,0,0,0,345,43.93H207.41a1,1,0,0,1-1-1V6.61A6.55,6.55,0,0,0,200.84.05a6.41,6.41,0,0,0-7.24,6.34V42.91a1,1,0,0,1-1,1H55a11.31,11.31,0,0,0-11.32,11.3V192.59a1,1,0,0,1-1,1H6.63a6.56,6.56,0,0,0-6.58,5.55,6.41,6.41,0,0,0,6.35,7.23H42.7a1,1,0,0,1,1,1V344.77A11.31,11.31,0,0,0,55,356.07H192.58a1,1,0,0,1,1,1v36.3a6.55,6.55,0,0,0,5.56,6.56,6.41,6.41,0,0,0,7.24-6.34V357.09a1,1,0,0,1,1-1H345a11.31,11.31,0,0,0,11.32-11.3V207.4a1,1,0,0,1,1-1h36.3a6.41,6.41,0,0,0,6.35-7.23A6.56,6.56,0,0,0,393.37,193.61Zm-186-136.9h134a2,2,0,0,1,2,2V192.59a1,1,0,0,1-1,1H216.68a.51.51,0,0,1-.36-.87L242,167.12a6.39,6.39,0,0,0,0-9,6.4,6.4,0,0,0-9.08,0l-25.63,25.6a.51.51,0,0,1-.87-.36V57.72A1,1,0,0,1,207.41,56.71Zm125.8,286.58H207.41a1,1,0,0,1-1-1V216.65a.51.51,0,0,1,.87-.36l126.3,126.13A.51.51,0,0,1,333.21,343.29Zm9.41-9.9L216.31,207.25a.5.5,0,0,1,.36-.86h125.8a1,1,0,0,1,1,1V333A.51.51,0,0,1,342.62,333.39Zm-150,9.9H66.79a.51.51,0,0,1-.36-.87L192.73,216.3a.51.51,0,0,1,.87.36V342.27A1,1,0,0,1,192.58,343.29ZM58.55,56.71h134a1,1,0,0,1,1,1V183.34a.51.51,0,0,1-.87.36l-25.34-25.3a6.39,6.39,0,1,0-9,9l25.34,25.31a.51.51,0,0,1-.36.87H57.53a1,1,0,0,1-1-1V58.74A2,2,0,0,1,58.55,56.71Zm-1,149.68h125.8a.5.5,0,0,1,.36.86L57.38,333.38a.51.51,0,0,1-.87-.35V207.4A1,1,0,0,1,57.53,206.39Z"/></svg>